<svg xmlns="http://www.w3.org/2000/svg" xmlns:xlink="http://www.w3.org/1999/xlink" version="1.1" width="40" height="40" viewBox="0 0 500 500" xml:space="preserve">
<g transform="matrix(1.1975349685 0 0 1.164333328 124.9785381702 377.9128415773)" id="RmFoFkJ6xKgFiR6xPb1RG"  >
<path style="stroke: rgb(59,225,1); stroke-width: 0; stroke-dasharray: none; stroke-linecap: butt; stroke-dashoffset: 0; stroke-linejoin: miter; stroke-miterlimit: 4; fill: rgb(255,160,0); fill-rule: nonzero; opacity: 1;"  transform=" translate(0, 0)" d="M -104.39901 -104.39901 L 104.399 -104.39901 L 104.399 104.399 L -104.39901 104.399 z" stroke-linecap="round" />
</g>
<g transform="matrix(1.3752517037 0 0 1.3752517037 370.7037023229 129.7259310703)" id="Ml3PRIvdM7oERSMV63WJ3"  >
<path style="stroke: rgb(138,174,103); stroke-width: 0; stroke-dasharray: none; stroke-linecap: butt; stroke-dashoffset: 0; stroke-linejoin: miter; stroke-miterlimit: 4; fill: rgb(244,67,54); fill-rule: nonzero; opacity: 1;"  transform=" translate(0, 0)" d="M 0 -90.1487 C 49.76208 -90.1487 90.1487 -49.762080000000005 90.1487 0 C 90.1487 49.76208 49.762080000000005 90.1487 0 90.1487 C -49.76208 90.1487 -90.1487 49.762080000000005 -90.1487 0 C -90.1487 -49.76208 -49.762080000000005 -90.1487 0 -90.1487 z" stroke-linecap="round" />
</g>
<g transform="matrix(3.0798529025 0 0 3.0384010748 374.9561681036 379.4128415773)" id="0IpNCQUdGd9h44qnxtU8u"  >
<path style="stroke: none; stroke-width: 1; stroke-dasharray: none; stroke-linecap: butt; stroke-dashoffset: 0; stroke-linejoin: miter; stroke-miterlimit: 4; fill: rgb(203,203,203); fill-rule: nonzero; opacity: 1;"  transform=" translate(-40, -40)" d="M 60 40 L 80 80 L 40 80 L 0 80 L 20 40 L 40 0 L 60 40 z" stroke-linecap="round" />
</g>
<g transform="matrix(0 -3.1166525673 -3.0384010748 0 121.2659574487 127.3136394326)" id="YMA4z463ilXf5vAdiG5XV"  >
<path style="stroke: none; stroke-width: 1; stroke-dasharray: none; stroke-linecap: butt; stroke-dashoffset: 0; stroke-linejoin: miter; stroke-miterlimit: 4; fill: rgb(203,203,203); fill-rule: nonzero; opacity: 1;"  transform=" translate(0, 0)" d="M 20 0 L 40 40 L 0 40 L -40 40 L -20 0 L 0 -40 z" stroke-linecap="round" />
</g>
</svg>

