<?xml version="1.0" standalone="no"?>
<!DOCTYPE svg PUBLIC "-//W3C//DTD SVG 20010904//EN"
 "http://www.w3.org/TR/2001/REC-SVG-20010904/DTD/svg10.dtd">
<svg version="1.0" xmlns="http://www.w3.org/2000/svg"
 width="13" height="13" viewBox="0 0 300.000000 300.000000"
 preserveAspectRatio="xMidYMid meet">

<g transform="translate(0.000000,300.000000) scale(0.100000,-0.100000)"
fill="#6E6E6E" stroke="none">
<path d="M2060 2839 c-128 -33 -215 -82 -305 -173 -206 -207 -251 -482 -122
-746 51 -104 158 -218 257 -273 83 -46 234 -87 321 -87 85 0 205 31 299 77
105 51 231 178 282 283 87 180 93 369 17 546 -123 287 -451 451 -749 373z"/>
<path d="M230 2196 c0 -361 3 -656 7 -656 8 0 1253 651 1253 655 0 4 -1218
641 -1242 651 -17 6 -18 -29 -18 -650z"/>
<path d="M1902 773 c-176 -334 -324 -616 -327 -625 -7 -17 28 -18 650 -18 622
0 657 1 650 18 -9 24 -636 1215 -645 1225 -4 5 -152 -265 -328 -600z"/>
<path d="M230 745 l0 -625 625 0 625 0 0 625 0 625 -625 0 -625 0 0 -625z"/>
</g>
</svg>
